<svg width="39" height="81" viewBox="0 0 39 81" fill="none" xmlns="http://www.w3.org/2000/svg">
<path d="M8.48865 15.7274C8.48865 17.7639 8.56034 27.7274 8.56034 27.7274H0.0501709V40.4927L8.48865 40.4692L8.56034 80.916H25.5807V40.4927L36.4814 40.4692C36.4814 40.4692 37.3047 34.8634 37.8141 27.7274C36.3516 27.7274 25.5807 27.7274 25.5807 27.7274C25.5807 27.7274 25.3039 18.8877 25.3039 17.5007C25.3039 16.1102 27.1302 14.239 28.9356 14.239H38.0623C38.0623 12.3859 38.0623 5.98284 38.0623 0.0693359C33.3607 0.0693359 28.0123 0.0693359 25.6532 0.0693359C8.07441 0.0693359 8.48865 13.6928 8.48865 15.7274Z" fill="white"/>
</svg>
