<svg width="91" height="61" viewBox="0 0 91 61" fill="none" xmlns="http://www.w3.org/2000/svg">
<path d="M89.014 9.75763C88.5183 7.96099 87.5287 6.31835 86.1448 4.99438C84.7604 3.67042 83.0303 2.71167 81.1273 2.21425C74.0859 0.36147 45.8724 0.36147 45.8724 0.36147C34.1082 0.22862 22.3471 0.818027 10.6646 2.12602C8.76104 2.65978 7.0337 3.64061 5.64558 4.97593C4.25748 6.31122 3.2544 7.9569 2.73104 9.75763C1.46889 16.5597 0.856179 23.4543 0.900223 30.3585C0.853159 37.2631 1.46589 44.1579 2.73104 50.9598C3.24362 52.7555 4.24454 54.3952 5.63549 55.7181C7.02642 57.0406 8.75951 58.0001 10.6646 58.503C17.8001 60.3557 45.8724 60.3557 45.8724 60.3557C57.6523 60.4888 69.4292 59.8993 81.1273 58.5911C83.0303 58.0939 84.7604 57.1351 86.1448 55.8111C87.5287 54.4871 88.5183 52.8444 89.014 51.0479C90.3084 44.2491 90.9368 37.3535 90.8918 30.447C90.9889 23.5094 90.3597 16.5796 89.014 9.75763ZM36.9062 43.1958V17.5216L60.3783 30.3585L36.9062 43.1958Z" fill="white"/>
</svg>
