<svg width="67" height="73" viewBox="0 0 67 73" fill="none" xmlns="http://www.w3.org/2000/svg">
<path d="M48.2918 48.0805C50.4508 46.926 52.922 46.2689 55.5538 46.2689H55.5628C55.8304 46.2689 55.9553 45.9491 55.759 45.7715C53.0221 43.3265 49.8956 41.3517 46.5075 39.928C46.4718 39.9102 46.4362 39.9013 46.4005 39.8836C51.9407 35.8783 55.5449 29.3687 55.5449 22.0243C55.5449 9.85766 45.66 0 33.4644 0C21.2689 0 11.3929 9.85766 11.3929 22.0243C11.3929 29.3687 14.9971 35.8783 20.5462 39.8836C20.5105 39.9013 20.4749 39.9102 20.4392 39.928C16.4513 41.6064 12.8738 44.0131 9.79593 47.0859C6.73582 50.1265 4.29957 53.7311 2.62312 57.6984C0.973665 61.5834 0.0834731 65.7459 0.000223089 69.9628C-0.00215808 70.0576 0.014543 70.1519 0.0493428 70.2401C0.0841426 70.3284 0.136337 70.4088 0.20285 70.4767C0.269363 70.5445 0.348849 70.5985 0.436624 70.6353C0.5244 70.6721 0.618689 70.691 0.713936 70.691H6.05786C6.44148 70.691 6.76265 70.3802 6.77157 69.9983C6.95 63.1423 9.70672 56.7215 14.5867 51.8549C19.6273 46.8195 26.3362 44.0487 33.4733 44.0487C38.5318 44.0487 43.385 45.4429 47.5692 48.0539C47.6767 48.1211 47.8 48.159 47.9269 48.1637C48.0538 48.1683 48.1796 48.1397 48.2918 48.0805V48.0805ZM33.4733 37.2993C29.3873 37.2993 25.5422 35.7096 22.6428 32.8234C21.2162 31.407 20.0852 29.7236 19.3151 27.8702C18.5449 26.0168 18.1507 24.03 18.1553 22.0243C18.1553 17.9481 19.7522 14.1116 22.6428 11.2253C25.5333 8.33905 29.3784 6.74939 33.4733 6.74939C37.5683 6.74939 41.4045 8.33905 44.3039 11.2253C45.7305 12.6417 46.8615 14.3251 47.6316 16.1785C48.4018 18.0319 48.796 20.0186 48.7914 22.0243C48.7914 26.1006 47.1945 29.9371 44.3039 32.8234C41.4045 35.7096 37.5594 37.2993 33.4733 37.2993ZM66.2863 58.4355H58.7923V50.9757C58.7923 50.5849 58.4711 50.2652 58.0786 50.2652H53.0826C52.6901 50.2652 52.3689 50.5849 52.3689 50.9757V58.4355H44.8749C44.4824 58.4355 44.1612 58.7552 44.1612 59.146V64.1192C44.1612 64.51 44.4824 64.8297 44.8749 64.8297H52.3689V72.2895C52.3689 72.6803 52.6901 73 53.0826 73H58.0786C58.4711 73 58.7923 72.6803 58.7923 72.2895V64.8297H66.2863C66.6788 64.8297 67 64.51 67 64.1192V59.146C67 58.7552 66.6788 58.4355 66.2863 58.4355Z" fill="black"/>
</svg>
