<svg width="67" height="70" viewBox="0 0 67 70" fill="none" xmlns="http://www.w3.org/2000/svg">
<path d="M53.3449 43.5857C49.1239 43.5857 45.3452 45.4477 42.8379 48.3664L26.528 39.4118C27.0352 38.0316 27.3139 36.5476 27.3139 35.0011C27.3139 33.4548 27.0352 31.9708 26.528 30.5906L42.8366 21.6339C45.3436 24.5535 49.123 26.4162 53.3443 26.4162C60.8738 26.4162 66.9997 20.4903 66.9997 13.2061C67.0003 5.92404 60.8745 0 53.3449 0C45.8144 0 39.688 5.92404 39.688 13.2058C39.688 14.7523 39.9664 16.2366 40.4739 17.6171L24.1644 26.5742C21.6574 23.6561 17.8789 21.7947 13.6589 21.7947C6.12743 21.7947 0 27.7187 0 35.0008C0 42.2825 6.12743 48.2065 13.6589 48.2065C17.8789 48.2065 21.6571 46.3451 24.1641 43.4273L40.4739 52.3822C39.9664 53.7627 39.6876 55.2474 39.6876 56.7942C39.6876 64.076 45.8141 70 53.3446 70C60.8742 70 67 64.0757 67 56.7942C67.0003 49.5113 60.8745 43.5857 53.3449 43.5857ZM53.3449 4.62117C58.2394 4.62117 62.2215 8.47215 62.2215 13.2058C62.2215 17.9419 58.2394 21.7947 53.3449 21.7947C48.4495 21.7947 44.4668 17.9419 44.4668 13.2058C44.4668 8.47215 48.4495 4.62117 53.3449 4.62117ZM13.6592 43.5857C8.7628 43.5857 4.77916 39.7344 4.77916 35.0011C4.77916 30.2671 8.7628 26.4162 13.6592 26.4162C18.5537 26.4162 22.5354 30.2671 22.5354 35.0011C22.5354 39.7344 18.5534 43.5857 13.6592 43.5857ZM53.3449 65.3791C48.4495 65.3791 44.4668 61.5278 44.4668 56.7945C44.4668 52.0594 48.4495 48.2069 53.3449 48.2069C58.2394 48.2069 62.2215 52.0594 62.2215 56.7945C62.2215 61.5278 58.2394 65.3791 53.3449 65.3791Z" fill="black"/>
</svg>
